<mxfile host="app.diagrams.net" agent="Mozilla/5.0 (Windows NT 10.0; Win64; x64) AppleWebKit/537.36 (KHTML, like Gecko) Chrome/131.0.0.0 Safari/537.36" version="24.8.6">
  <diagram name="Page-1" id="SR1vQHpdzD1rm5UzRko7">
    <mxGraphModel dx="1050" dy="565" grid="1" gridSize="10" guides="1" tooltips="1" connect="1" arrows="1" fold="1" page="1" pageScale="1" pageWidth="827" pageHeight="1169" math="0" shadow="0">
      <root>
        <mxCell id="0" />
        <mxCell id="1" parent="0" />
        <mxCell id="NF087FdTUxlrRt5CCoxy-1" value="User Interface&lt;div&gt;-------------------&lt;/div&gt;&lt;div&gt;- Enter Query&lt;/div&gt;&lt;div&gt;- Search Results&lt;/div&gt;" style="rounded=0;whiteSpace=wrap;html=1;" vertex="1" parent="1">
          <mxGeometry x="294" y="110" width="216" height="60" as="geometry" />
        </mxCell>
        <mxCell id="NF087FdTUxlrRt5CCoxy-10" style="edgeStyle=orthogonalEdgeStyle;rounded=0;orthogonalLoop=1;jettySize=auto;html=1;exitX=0.5;exitY=1;exitDx=0;exitDy=0;" edge="1" parent="1" source="NF087FdTUxlrRt5CCoxy-2" target="NF087FdTUxlrRt5CCoxy-3">
          <mxGeometry relative="1" as="geometry" />
        </mxCell>
        <mxCell id="NF087FdTUxlrRt5CCoxy-2" value="Process Query" style="rounded=0;whiteSpace=wrap;html=1;" vertex="1" parent="1">
          <mxGeometry x="264" y="220" width="300" height="60" as="geometry" />
        </mxCell>
        <mxCell id="NF087FdTUxlrRt5CCoxy-11" style="edgeStyle=orthogonalEdgeStyle;rounded=0;orthogonalLoop=1;jettySize=auto;html=1;exitX=0.5;exitY=1;exitDx=0;exitDy=0;" edge="1" parent="1" source="NF087FdTUxlrRt5CCoxy-3" target="NF087FdTUxlrRt5CCoxy-4">
          <mxGeometry relative="1" as="geometry" />
        </mxCell>
        <mxCell id="NF087FdTUxlrRt5CCoxy-3" value="Get all documents&lt;div&gt;getAllTextDocuments()&lt;/div&gt;" style="rounded=0;whiteSpace=wrap;html=1;" vertex="1" parent="1">
          <mxGeometry x="316" y="330" width="196" height="60" as="geometry" />
        </mxCell>
        <mxCell id="NF087FdTUxlrRt5CCoxy-12" style="edgeStyle=orthogonalEdgeStyle;rounded=0;orthogonalLoop=1;jettySize=auto;html=1;exitX=0.5;exitY=1;exitDx=0;exitDy=0;" edge="1" parent="1" source="NF087FdTUxlrRt5CCoxy-4" target="NF087FdTUxlrRt5CCoxy-5">
          <mxGeometry relative="1" as="geometry" />
        </mxCell>
        <mxCell id="NF087FdTUxlrRt5CCoxy-13" style="edgeStyle=orthogonalEdgeStyle;rounded=0;orthogonalLoop=1;jettySize=auto;html=1;entryX=0.5;entryY=0;entryDx=0;entryDy=0;" edge="1" parent="1" source="NF087FdTUxlrRt5CCoxy-4" target="NF087FdTUxlrRt5CCoxy-6">
          <mxGeometry relative="1" as="geometry" />
        </mxCell>
        <mxCell id="NF087FdTUxlrRt5CCoxy-4" value="Calculate&amp;nbsp; TF, ID and TF-IDF" style="rounded=0;whiteSpace=wrap;html=1;" vertex="1" parent="1">
          <mxGeometry x="285" y="430" width="280" height="60" as="geometry" />
        </mxCell>
        <mxCell id="NF087FdTUxlrRt5CCoxy-14" style="edgeStyle=orthogonalEdgeStyle;rounded=0;orthogonalLoop=1;jettySize=auto;html=1;exitX=0.5;exitY=1;exitDx=0;exitDy=0;" edge="1" parent="1" source="NF087FdTUxlrRt5CCoxy-5" target="NF087FdTUxlrRt5CCoxy-7">
          <mxGeometry relative="1" as="geometry" />
        </mxCell>
        <mxCell id="NF087FdTUxlrRt5CCoxy-5" value="Term Frequency" style="rounded=0;whiteSpace=wrap;html=1;" vertex="1" parent="1">
          <mxGeometry x="210" y="555" width="120" height="60" as="geometry" />
        </mxCell>
        <mxCell id="NF087FdTUxlrRt5CCoxy-6" value="Inverse Document Frequency" style="rounded=0;whiteSpace=wrap;html=1;" vertex="1" parent="1">
          <mxGeometry x="450" y="555" width="120" height="60" as="geometry" />
        </mxCell>
        <mxCell id="NF087FdTUxlrRt5CCoxy-17" style="edgeStyle=orthogonalEdgeStyle;rounded=0;orthogonalLoop=1;jettySize=auto;html=1;exitX=0.5;exitY=1;exitDx=0;exitDy=0;entryX=0.5;entryY=0;entryDx=0;entryDy=0;" edge="1" parent="1" source="NF087FdTUxlrRt5CCoxy-7" target="NF087FdTUxlrRt5CCoxy-8">
          <mxGeometry relative="1" as="geometry" />
        </mxCell>
        <mxCell id="NF087FdTUxlrRt5CCoxy-7" value="TF-IDF" style="rounded=0;whiteSpace=wrap;html=1;" vertex="1" parent="1">
          <mxGeometry x="342" y="661" width="120" height="60" as="geometry" />
        </mxCell>
        <mxCell id="NF087FdTUxlrRt5CCoxy-8" value="Display Results on panel" style="rounded=0;whiteSpace=wrap;html=1;" vertex="1" parent="1">
          <mxGeometry x="300" y="750" width="200" height="60" as="geometry" />
        </mxCell>
        <mxCell id="NF087FdTUxlrRt5CCoxy-9" style="edgeStyle=orthogonalEdgeStyle;rounded=0;orthogonalLoop=1;jettySize=auto;html=1;exitX=0.5;exitY=1;exitDx=0;exitDy=0;entryX=0.468;entryY=0.03;entryDx=0;entryDy=0;entryPerimeter=0;" edge="1" parent="1" source="NF087FdTUxlrRt5CCoxy-1" target="NF087FdTUxlrRt5CCoxy-2">
          <mxGeometry relative="1" as="geometry" />
        </mxCell>
        <mxCell id="NF087FdTUxlrRt5CCoxy-15" style="edgeStyle=orthogonalEdgeStyle;rounded=0;orthogonalLoop=1;jettySize=auto;html=1;exitX=0.5;exitY=1;exitDx=0;exitDy=0;entryX=0.607;entryY=0.067;entryDx=0;entryDy=0;entryPerimeter=0;" edge="1" parent="1" source="NF087FdTUxlrRt5CCoxy-6" target="NF087FdTUxlrRt5CCoxy-7">
          <mxGeometry relative="1" as="geometry" />
        </mxCell>
        <mxCell id="NF087FdTUxlrRt5CCoxy-16" value="*" style="text;html=1;align=center;verticalAlign=middle;resizable=0;points=[];autosize=1;strokeColor=none;fillColor=none;" vertex="1" parent="1">
          <mxGeometry x="385" y="608" width="30" height="30" as="geometry" />
        </mxCell>
      </root>
    </mxGraphModel>
  </diagram>
</mxfile>
